<?xml version="1.0" encoding="UTF-8" standalone="no"?>
<!DOCTYPE svg PUBLIC "-//W3C//DTD SVG 1.1//EN"
 "http://www.w3.org/Graphics/SVG/1.1/DTD/svg11.dtd">
<!-- Generated by graphviz version 2.43.0 (0)
 -->
<!-- Title: AllocationHierarchy Pages: 1 -->
<svg width="1548pt" height="237pt"
 viewBox="0.00 0.00 1547.97 237.00" xmlns="http://www.w3.org/2000/svg" xmlns:xlink="http://www.w3.org/1999/xlink">
<g id="graph0" class="graph" transform="scale(1 1) rotate(0) translate(4 233)">
<title>AllocationHierarchy</title>
<polygon fill="white" stroke="transparent" points="-4,4 -4,-233 1543.97,-233 1543.97,4 -4,4"/>
<text text-anchor="middle" x="769.99" y="-10" font-family="Times,serif" font-size="20.00">High&#45;Level Allocator Hierarchy (MINIX318)</text>
<g id="clust1" class="cluster">
<title>cluster_kernel</title>
<polygon fill="none" stroke="black" points="790.78,-38 790.78,-221 1531.97,-221 1531.97,-38 790.78,-38"/>
<text text-anchor="middle" x="1161.38" y="-205.8" font-family="Times,serif" font-size="14.00">Kernel Space</text>
</g>
<g id="clust2" class="cluster">
<title>cluster_userspace</title>
<polygon fill="none" stroke="black" points="8,-38 8,-221 690.78,-221 690.78,-38 8,-38"/>
<text text-anchor="middle" x="349.39" y="-205.8" font-family="Times,serif" font-size="14.00">Userspace / Libc</text>
</g>
<!-- Kernel Code -->
<g id="node1" class="node">
<title>Kernel Code</title>
<ellipse fill="none" stroke="black" cx="866.38" cy="-118" rx="67.69" ry="18"/>
<text text-anchor="middle" x="866.38" y="-114.3" font-family="Times,serif" font-size="14.00">Kernel Code</text>
</g>
<!-- MINIX Kernel Kalloc (kalloc.c) -->
<g id="node2" class="node">
<title>MINIX Kernel Kalloc (kalloc.c)</title>
<polygon fill="lightblue" stroke="black" points="1249.97,-82 1019.97,-82 1019.97,-46 1249.97,-46 1249.97,-82"/>
<text text-anchor="middle" x="1134.97" y="-60.3" font-family="Times,serif" font-size="14.00">MINIX Kernel Kalloc (kalloc.c)</text>
</g>
<!-- Kernel Code&#45;&gt;MINIX Kernel Kalloc (kalloc.c) -->
<g id="edge1" class="edge">
<title>Kernel Code&#45;&gt;MINIX Kernel Kalloc (kalloc.c)</title>
<path fill="none" stroke="black" d="M913.58,-105C931.42,-100.23 952.07,-95.02 970.97,-91 983.49,-88.34 996.6,-85.78 1009.71,-83.38"/>
<polygon fill="black" stroke="black" points="1010.51,-86.79 1019.73,-81.57 1009.27,-79.9 1010.51,-86.79"/>
</g>
<!-- MINIX Bootstrap Kalloc (bootstrap/kalloc.c) -->
<g id="node3" class="node">
<title>MINIX Bootstrap Kalloc (bootstrap/kalloc.c)</title>
<polygon fill="lightgreen" stroke="black" points="1298.97,-136 970.97,-136 970.97,-100 1298.97,-100 1298.97,-136"/>
<text text-anchor="middle" x="1134.97" y="-114.3" font-family="Times,serif" font-size="14.00">MINIX Bootstrap Kalloc (bootstrap/kalloc.c)</text>
</g>
<!-- Kernel Code&#45;&gt;MINIX Bootstrap Kalloc (bootstrap/kalloc.c) -->
<g id="edge4" class="edge">
<title>Kernel Code&#45;&gt;MINIX Bootstrap Kalloc (bootstrap/kalloc.c)</title>
<path fill="none" stroke="black" d="M934.31,-118C942.75,-118 951.66,-118 960.85,-118"/>
<polygon fill="black" stroke="black" points="960.93,-121.5 970.93,-118 960.93,-114.5 960.93,-121.5"/>
</g>
<!-- MINIX Kernel Malloc (old) (malloc.c) -->
<g id="node4" class="node">
<title>MINIX Kernel Malloc (old) (malloc.c)</title>
<polygon fill="lightgray" stroke="black" points="1272.97,-190 996.97,-190 996.97,-154 1272.97,-154 1272.97,-190"/>
<text text-anchor="middle" x="1134.97" y="-168.3" font-family="Times,serif" font-size="14.00">MINIX Kernel Malloc (old) (malloc.c)</text>
</g>
<!-- Kernel Code&#45;&gt;MINIX Kernel Malloc (old) (malloc.c) -->
<g id="edge6" class="edge">
<title>Kernel Code&#45;&gt;MINIX Kernel Malloc (old) (malloc.c)</title>
<path fill="none" stroke="black" d="M913.58,-131C931.42,-135.77 952.07,-140.98 970.97,-145 982.71,-147.5 994.96,-149.9 1007.24,-152.17"/>
<polygon fill="black" stroke="black" points="1006.62,-155.61 1017.09,-153.96 1007.88,-148.72 1006.62,-155.61"/>
</g>
<!-- Zone Allocator (zalloc.c) -->
<g id="node5" class="node">
<title>Zone Allocator (zalloc.c)</title>
<path fill="none" stroke="black" d="M1511.97,-82C1511.97,-82 1347.97,-82 1347.97,-82 1341.97,-82 1335.97,-76 1335.97,-70 1335.97,-70 1335.97,-58 1335.97,-58 1335.97,-52 1341.97,-46 1347.97,-46 1347.97,-46 1511.97,-46 1511.97,-46 1517.97,-46 1523.97,-52 1523.97,-58 1523.97,-58 1523.97,-70 1523.97,-70 1523.97,-76 1517.97,-82 1511.97,-82"/>
<text text-anchor="middle" x="1429.97" y="-60.3" font-family="Times,serif" font-size="14.00">Zone Allocator (zalloc.c)</text>
</g>
<!-- MINIX Kernel Kalloc (kalloc.c)&#45;&gt;Zone Allocator (zalloc.c) -->
<g id="edge2" class="edge">
<title>MINIX Kernel Kalloc (kalloc.c)&#45;&gt;Zone Allocator (zalloc.c)</title>
<path fill="none" stroke="black" d="M1250.09,-64C1274.84,-64 1300.88,-64 1325.2,-64"/>
<polygon fill="black" stroke="black" points="1325.51,-67.5 1335.51,-64 1325.51,-60.5 1325.51,-67.5"/>
</g>
<!-- Page Allocator (vm_*) -->
<g id="node6" class="node">
<title>Page Allocator (vm_*)</title>
<path fill="none" stroke="black" d="M1502.97,-136C1502.97,-136 1356.97,-136 1356.97,-136 1350.97,-136 1344.97,-130 1344.97,-124 1344.97,-124 1344.97,-112 1344.97,-112 1344.97,-106 1350.97,-100 1356.97,-100 1356.97,-100 1502.97,-100 1502.97,-100 1508.97,-100 1514.97,-106 1514.97,-112 1514.97,-112 1514.97,-124 1514.97,-124 1514.97,-130 1508.97,-136 1502.97,-136"/>
<text text-anchor="middle" x="1429.97" y="-114.3" font-family="Times,serif" font-size="14.00">Page Allocator (vm_*)</text>
</g>
<!-- MINIX Kernel Kalloc (kalloc.c)&#45;&gt;Page Allocator (vm_*) -->
<g id="edge3" class="edge">
<title>MINIX Kernel Kalloc (kalloc.c)&#45;&gt;Page Allocator (vm_*)</title>
<path fill="none" stroke="black" d="M1248.75,-82.07C1265.61,-84.95 1282.76,-87.97 1298.97,-91 1310.57,-93.16 1322.72,-95.54 1334.75,-97.96"/>
<polygon fill="black" stroke="black" points="1334.31,-101.44 1344.8,-100 1335.7,-94.58 1334.31,-101.44"/>
</g>
<!-- MINIX Bootstrap Kalloc (bootstrap/kalloc.c)&#45;&gt;Page Allocator (vm_*) -->
<g id="edge5" class="edge">
<title>MINIX Bootstrap Kalloc (bootstrap/kalloc.c)&#45;&gt;Page Allocator (vm_*)</title>
<path fill="none" stroke="black" d="M1299.18,-118C1311.37,-118 1323.41,-118 1334.95,-118"/>
<polygon fill="black" stroke="black" points="1334.96,-121.5 1344.96,-118 1334.96,-114.5 1334.96,-121.5"/>
</g>
<!-- User Application -->
<g id="node7" class="node">
<title>User Application</title>
<ellipse fill="none" stroke="black" cx="104.39" cy="-118" rx="88.28" ry="18"/>
<text text-anchor="middle" x="104.39" y="-114.3" font-family="Times,serif" font-size="14.00">User Application</text>
</g>
<!-- Libc Malloc (libmalloc/common/malloc.c) -->
<g id="node8" class="node">
<title>Libc Malloc (libmalloc/common/malloc.c)</title>
<polygon fill="orange" stroke="black" points="534.78,-136 229.78,-136 229.78,-100 534.78,-100 534.78,-136"/>
<text text-anchor="middle" x="382.28" y="-114.3" font-family="Times,serif" font-size="14.00">Libc Malloc (libmalloc/common/malloc.c)</text>
</g>
<!-- User Application&#45;&gt;Libc Malloc (libmalloc/common/malloc.c) -->
<g id="edge7" class="edge">
<title>User Application&#45;&gt;Libc Malloc (libmalloc/common/malloc.c)</title>
<path fill="none" stroke="black" d="M193.07,-118C201.61,-118 210.44,-118 219.42,-118"/>
<polygon fill="black" stroke="black" points="219.61,-121.5 229.61,-118 219.61,-114.5 219.61,-121.5"/>
</g>
<!-- Root ./malloc.c (wrapper) -->
<g id="node9" class="node">
<title>Root ./malloc.c (wrapper)</title>
<path fill="none" stroke="black" d="M468.78,-82C468.78,-82 295.78,-82 295.78,-82 289.78,-82 283.78,-76 283.78,-70 283.78,-70 283.78,-58 283.78,-58 283.78,-52 289.78,-46 295.78,-46 295.78,-46 468.78,-46 468.78,-46 474.78,-46 480.78,-52 480.78,-58 480.78,-58 480.78,-70 480.78,-70 480.78,-76 474.78,-82 468.78,-82"/>
<text text-anchor="middle" x="382.28" y="-60.3" font-family="Times,serif" font-size="14.00">Root ./malloc.c (wrapper)</text>
</g>
<!-- User Application&#45;&gt;Root ./malloc.c (wrapper) -->
<g id="edge8" class="edge">
<title>User Application&#45;&gt;Root ./malloc.c (wrapper)</title>
<path fill="none" stroke="black" d="M164.46,-104.71C185.09,-100.19 208.43,-95.22 229.78,-91 243.84,-88.22 258.65,-85.43 273.29,-82.74"/>
<polygon fill="black" stroke="black" points="274.18,-86.13 283.39,-80.89 272.92,-79.25 274.18,-86.13"/>
</g>
<!-- Root ./alloc.c (UCB) -->
<g id="node10" class="node">
<title>Root ./alloc.c (UCB)</title>
<path fill="none" stroke="black" d="M448.28,-190C448.28,-190 316.28,-190 316.28,-190 310.28,-190 304.28,-184 304.28,-178 304.28,-178 304.28,-166 304.28,-166 304.28,-160 310.28,-154 316.28,-154 316.28,-154 448.28,-154 448.28,-154 454.28,-154 460.28,-160 460.28,-166 460.28,-166 460.28,-178 460.28,-178 460.28,-184 454.28,-190 448.28,-190"/>
<text text-anchor="middle" x="382.28" y="-168.3" font-family="Times,serif" font-size="14.00">Root ./alloc.c (UCB)</text>
</g>
<!-- User Application&#45;&gt;Root ./alloc.c (UCB) -->
<g id="edge9" class="edge">
<title>User Application&#45;&gt;Root ./alloc.c (UCB)</title>
<path fill="none" stroke="black" d="M164.46,-131.29C185.09,-135.81 208.43,-140.78 229.78,-145 250.6,-149.11 273.08,-153.27 294.19,-157.05"/>
<polygon fill="black" stroke="black" points="293.65,-160.51 304.11,-158.82 294.88,-153.62 293.65,-160.51"/>
</g>
<!-- sbrk (syscall) -->
<g id="node11" class="node">
<title>sbrk (syscall)</title>
<path fill="none" stroke="black" d="M670.78,-136C670.78,-136 583.78,-136 583.78,-136 577.78,-136 571.78,-130 571.78,-124 571.78,-124 571.78,-112 571.78,-112 571.78,-106 577.78,-100 583.78,-100 583.78,-100 670.78,-100 670.78,-100 676.78,-100 682.78,-106 682.78,-112 682.78,-112 682.78,-124 682.78,-124 682.78,-130 676.78,-136 670.78,-136"/>
<text text-anchor="middle" x="627.28" y="-114.3" font-family="Times,serif" font-size="14.00">sbrk (syscall)</text>
</g>
<!-- Libc Malloc (libmalloc/common/malloc.c)&#45;&gt;sbrk (syscall) -->
<g id="edge10" class="edge">
<title>Libc Malloc (libmalloc/common/malloc.c)&#45;&gt;sbrk (syscall)</title>
<path fill="none" stroke="black" d="M535.11,-118C544.25,-118 553.14,-118 561.57,-118"/>
<polygon fill="black" stroke="black" points="561.6,-121.5 571.6,-118 561.6,-114.5 561.6,-121.5"/>
</g>
<!-- Root ./malloc.c (wrapper)&#45;&gt;MINIX Kernel Kalloc (kalloc.c) -->
<g id="edge12" class="edge">
<title>Root ./malloc.c (wrapper)&#45;&gt;MINIX Kernel Kalloc (kalloc.c)</title>
<path fill="none" stroke="black" d="M481.04,-64C616.5,-64 861.34,-64 1009.65,-64"/>
<polygon fill="black" stroke="black" points="1009.71,-67.5 1019.71,-64 1009.71,-60.5 1009.71,-67.5"/>
</g>
<!-- Root ./alloc.c (UCB)&#45;&gt;sbrk (syscall) -->
<g id="edge11" class="edge">
<title>Root ./alloc.c (UCB)&#45;&gt;sbrk (syscall)</title>
<path fill="none" stroke="black" d="M460.31,-159.97C484.28,-155.77 510.73,-150.67 534.78,-145 543.54,-142.93 552.71,-140.53 561.71,-138.02"/>
<polygon fill="black" stroke="black" points="562.73,-141.37 571.39,-135.27 560.81,-134.64 562.73,-141.37"/>
</g>
<!-- sbrk (syscall)&#45;&gt;Kernel Code -->
<g id="edge13" class="edge">
<title>sbrk (syscall)&#45;&gt;Kernel Code</title>
<path fill="none" stroke="black" stroke-dasharray="1,5" d="M682.98,-118C714.34,-118 754.21,-118 788.67,-118"/>
<polygon fill="black" stroke="black" points="788.7,-121.5 798.7,-118 788.7,-114.5 788.7,-121.5"/>
<text text-anchor="middle" x="740.78" y="-121.8" font-family="Times,serif" font-size="14.00">kernel trap</text>
</g>
</g>
</svg>
